<mxfile host="app.diagrams.net" agent="Mozilla/5.0 (Windows NT 10.0; Win64; x64) AppleWebKit/537.36 (KHTML, like Gecko) Chrome/141.0.0.0 Safari/537.36 Edg/141.0.0.0" version="28.2.8">
  <diagram name="Page-1" id="3fNMzCvgpLFDItHwEl0G">
    <mxGraphModel dx="778" dy="460" grid="1" gridSize="10" guides="1" tooltips="1" connect="1" arrows="1" fold="1" page="1" pageScale="1" pageWidth="850" pageHeight="1100" math="0" shadow="0">
      <root>
        <mxCell id="0" />
        <mxCell id="1" parent="0" />
        <mxCell id="-DwnF1ltP52q_wIjuvMH-1" value="" style="rounded=0;whiteSpace=wrap;html=1;" parent="1" vertex="1">
          <mxGeometry x="20" y="80" width="120" height="320" as="geometry" />
        </mxCell>
        <mxCell id="-DwnF1ltP52q_wIjuvMH-2" value="SOURCE" style="rounded=1;whiteSpace=wrap;html=1;" parent="1" vertex="1">
          <mxGeometry x="40" y="60" width="80" height="40" as="geometry" />
        </mxCell>
        <mxCell id="SWYZwbpZq4U3vNri9sKk-2" style="edgeStyle=orthogonalEdgeStyle;rounded=0;orthogonalLoop=1;jettySize=auto;html=1;entryX=0;entryY=0.5;entryDx=0;entryDy=0;" parent="1" source="-DwnF1ltP52q_wIjuvMH-3" target="-DwnF1ltP52q_wIjuvMH-11" edge="1">
          <mxGeometry relative="1" as="geometry" />
        </mxCell>
        <mxCell id="SWYZwbpZq4U3vNri9sKk-8" style="edgeStyle=orthogonalEdgeStyle;rounded=0;orthogonalLoop=1;jettySize=auto;html=1;exitX=1;exitY=0.5;exitDx=0;exitDy=0;entryX=0;entryY=0.5;entryDx=0;entryDy=0;" parent="1" source="-DwnF1ltP52q_wIjuvMH-3" target="-DwnF1ltP52q_wIjuvMH-12" edge="1">
          <mxGeometry relative="1" as="geometry" />
        </mxCell>
        <mxCell id="SWYZwbpZq4U3vNri9sKk-9" style="edgeStyle=orthogonalEdgeStyle;rounded=0;orthogonalLoop=1;jettySize=auto;html=1;exitX=1;exitY=0.5;exitDx=0;exitDy=0;entryX=0;entryY=0.75;entryDx=0;entryDy=0;" parent="1" source="-DwnF1ltP52q_wIjuvMH-3" target="-DwnF1ltP52q_wIjuvMH-13" edge="1">
          <mxGeometry relative="1" as="geometry" />
        </mxCell>
        <mxCell id="-DwnF1ltP52q_wIjuvMH-3" value="ERP&lt;div&gt;&lt;br&gt;&lt;/div&gt;" style="image;html=1;image=img/lib/clip_art/general/Full_Folder_128x128.png" parent="1" vertex="1">
          <mxGeometry x="40" y="310" width="80" height="30" as="geometry" />
        </mxCell>
        <mxCell id="SWYZwbpZq4U3vNri9sKk-10" style="edgeStyle=orthogonalEdgeStyle;rounded=0;orthogonalLoop=1;jettySize=auto;html=1;exitX=1;exitY=0.5;exitDx=0;exitDy=0;entryX=0;entryY=0.5;entryDx=0;entryDy=0;" parent="1" source="-DwnF1ltP52q_wIjuvMH-5" target="-DwnF1ltP52q_wIjuvMH-14" edge="1">
          <mxGeometry relative="1" as="geometry" />
        </mxCell>
        <mxCell id="SWYZwbpZq4U3vNri9sKk-11" style="edgeStyle=orthogonalEdgeStyle;rounded=0;orthogonalLoop=1;jettySize=auto;html=1;exitX=1;exitY=0.5;exitDx=0;exitDy=0;entryX=0;entryY=0.5;entryDx=0;entryDy=0;" parent="1" source="-DwnF1ltP52q_wIjuvMH-5" target="-DwnF1ltP52q_wIjuvMH-10" edge="1">
          <mxGeometry relative="1" as="geometry" />
        </mxCell>
        <mxCell id="SWYZwbpZq4U3vNri9sKk-12" style="edgeStyle=orthogonalEdgeStyle;rounded=0;orthogonalLoop=1;jettySize=auto;html=1;exitX=1;exitY=0.5;exitDx=0;exitDy=0;entryX=0;entryY=0.5;entryDx=0;entryDy=0;" parent="1" source="-DwnF1ltP52q_wIjuvMH-5" target="-DwnF1ltP52q_wIjuvMH-15" edge="1">
          <mxGeometry relative="1" as="geometry" />
        </mxCell>
        <mxCell id="-DwnF1ltP52q_wIjuvMH-5" value="CRM" style="image;html=1;image=img/lib/clip_art/general/Full_Folder_128x128.png" parent="1" vertex="1">
          <mxGeometry x="40" y="180" width="80" height="30" as="geometry" />
        </mxCell>
        <mxCell id="-DwnF1ltP52q_wIjuvMH-8" value="" style="rounded=1;whiteSpace=wrap;html=1;fillColor=#fa6800;fontColor=#000000;strokeColor=#C73500;" parent="1" vertex="1">
          <mxGeometry x="240" y="120" width="120" height="280" as="geometry" />
        </mxCell>
        <mxCell id="-DwnF1ltP52q_wIjuvMH-9" value="BRONZE LAYER" style="rounded=0;whiteSpace=wrap;html=1;fillColor=#fa6800;fontColor=#000000;strokeColor=#C73500;" parent="1" vertex="1">
          <mxGeometry x="240" y="80" width="120" height="30" as="geometry" />
        </mxCell>
        <mxCell id="YqqokJOsMBxqn3fK3Nd--17" style="edgeStyle=orthogonalEdgeStyle;rounded=0;orthogonalLoop=1;jettySize=auto;html=1;exitX=1;exitY=0.5;exitDx=0;exitDy=0;entryX=0;entryY=0.5;entryDx=0;entryDy=0;" edge="1" parent="1" source="-DwnF1ltP52q_wIjuvMH-10" target="YqqokJOsMBxqn3fK3Nd--3">
          <mxGeometry relative="1" as="geometry">
            <mxPoint x="420" y="155" as="targetPoint" />
          </mxGeometry>
        </mxCell>
        <mxCell id="-DwnF1ltP52q_wIjuvMH-10" value="crm_cust_info" style="rounded=0;whiteSpace=wrap;html=1;" parent="1" vertex="1">
          <mxGeometry x="240" y="140" width="120" height="30" as="geometry" />
        </mxCell>
        <mxCell id="YqqokJOsMBxqn3fK3Nd--20" style="edgeStyle=orthogonalEdgeStyle;rounded=0;orthogonalLoop=1;jettySize=auto;html=1;exitX=1;exitY=0.5;exitDx=0;exitDy=0;entryX=0;entryY=0.5;entryDx=0;entryDy=0;" edge="1" parent="1" source="-DwnF1ltP52q_wIjuvMH-11" target="YqqokJOsMBxqn3fK3Nd--4">
          <mxGeometry relative="1" as="geometry" />
        </mxCell>
        <mxCell id="-DwnF1ltP52q_wIjuvMH-11" value="erp_cust_az12" style="rounded=0;whiteSpace=wrap;html=1;" parent="1" vertex="1">
          <mxGeometry x="240" y="270" width="120" height="30" as="geometry" />
        </mxCell>
        <mxCell id="YqqokJOsMBxqn3fK3Nd--21" style="edgeStyle=orthogonalEdgeStyle;rounded=0;orthogonalLoop=1;jettySize=auto;html=1;exitX=1;exitY=0.5;exitDx=0;exitDy=0;entryX=0;entryY=0.5;entryDx=0;entryDy=0;" edge="1" parent="1" source="-DwnF1ltP52q_wIjuvMH-12" target="YqqokJOsMBxqn3fK3Nd--5">
          <mxGeometry relative="1" as="geometry" />
        </mxCell>
        <mxCell id="-DwnF1ltP52q_wIjuvMH-12" value="erm_loc_a101" style="rounded=0;whiteSpace=wrap;html=1;" parent="1" vertex="1">
          <mxGeometry x="240" y="310" width="120" height="30" as="geometry" />
        </mxCell>
        <mxCell id="YqqokJOsMBxqn3fK3Nd--22" style="edgeStyle=orthogonalEdgeStyle;rounded=0;orthogonalLoop=1;jettySize=auto;html=1;exitX=1;exitY=0.5;exitDx=0;exitDy=0;entryX=0;entryY=0.5;entryDx=0;entryDy=0;" edge="1" parent="1" source="-DwnF1ltP52q_wIjuvMH-13" target="YqqokJOsMBxqn3fK3Nd--6">
          <mxGeometry relative="1" as="geometry" />
        </mxCell>
        <mxCell id="-DwnF1ltP52q_wIjuvMH-13" value="erm_px_cat_g1v2&amp;nbsp;" style="rounded=0;whiteSpace=wrap;html=1;" parent="1" vertex="1">
          <mxGeometry x="240" y="350" width="120" height="30" as="geometry" />
        </mxCell>
        <mxCell id="YqqokJOsMBxqn3fK3Nd--18" style="edgeStyle=orthogonalEdgeStyle;rounded=0;orthogonalLoop=1;jettySize=auto;html=1;exitX=1;exitY=0.5;exitDx=0;exitDy=0;entryX=0;entryY=0.5;entryDx=0;entryDy=0;" edge="1" parent="1" source="-DwnF1ltP52q_wIjuvMH-14" target="YqqokJOsMBxqn3fK3Nd--7">
          <mxGeometry relative="1" as="geometry">
            <mxPoint x="420" y="195" as="targetPoint" />
          </mxGeometry>
        </mxCell>
        <mxCell id="-DwnF1ltP52q_wIjuvMH-14" value="crm_prd_info" style="rounded=0;whiteSpace=wrap;html=1;" parent="1" vertex="1">
          <mxGeometry x="240" y="180" width="120" height="30" as="geometry" />
        </mxCell>
        <mxCell id="YqqokJOsMBxqn3fK3Nd--19" style="edgeStyle=orthogonalEdgeStyle;rounded=0;orthogonalLoop=1;jettySize=auto;html=1;exitX=1;exitY=0.5;exitDx=0;exitDy=0;entryX=0;entryY=0.5;entryDx=0;entryDy=0;" edge="1" parent="1" source="-DwnF1ltP52q_wIjuvMH-15" target="YqqokJOsMBxqn3fK3Nd--8">
          <mxGeometry relative="1" as="geometry" />
        </mxCell>
        <mxCell id="-DwnF1ltP52q_wIjuvMH-15" value="crm_sales_details" style="rounded=0;whiteSpace=wrap;html=1;" parent="1" vertex="1">
          <mxGeometry x="240" y="220" width="120" height="30" as="geometry" />
        </mxCell>
        <mxCell id="YqqokJOsMBxqn3fK3Nd--1" value="" style="rounded=1;whiteSpace=wrap;html=1;fillColor=#f5f5f5;gradientColor=#b3b3b3;strokeColor=#666666;" vertex="1" parent="1">
          <mxGeometry x="425" y="120" width="120" height="280" as="geometry" />
        </mxCell>
        <mxCell id="YqqokJOsMBxqn3fK3Nd--2" value="SILVER LAYER" style="rounded=0;whiteSpace=wrap;html=1;fillColor=#f5f5f5;gradientColor=#b3b3b3;strokeColor=#666666;" vertex="1" parent="1">
          <mxGeometry x="425" y="80" width="120" height="30" as="geometry" />
        </mxCell>
        <mxCell id="YqqokJOsMBxqn3fK3Nd--29" style="edgeStyle=orthogonalEdgeStyle;rounded=0;orthogonalLoop=1;jettySize=auto;html=1;exitX=1;exitY=0.5;exitDx=0;exitDy=0;entryX=0;entryY=0.5;entryDx=0;entryDy=0;fillColor=#1ba1e2;strokeColor=#006EAF;" edge="1" parent="1">
          <mxGeometry relative="1" as="geometry">
            <mxPoint x="546" y="155" as="sourcePoint" />
            <mxPoint x="611" y="285" as="targetPoint" />
            <Array as="points">
              <mxPoint x="579" y="155" />
              <mxPoint x="579" y="290" />
              <mxPoint x="611" y="290" />
            </Array>
          </mxGeometry>
        </mxCell>
        <mxCell id="YqqokJOsMBxqn3fK3Nd--3" value="crm_cust_info" style="rounded=0;whiteSpace=wrap;html=1;" vertex="1" parent="1">
          <mxGeometry x="425" y="140" width="120" height="30" as="geometry" />
        </mxCell>
        <mxCell id="YqqokJOsMBxqn3fK3Nd--28" style="edgeStyle=orthogonalEdgeStyle;rounded=0;orthogonalLoop=1;jettySize=auto;html=1;exitX=1;exitY=0.5;exitDx=0;exitDy=0;fillColor=#1ba1e2;strokeColor=#006EAF;" edge="1" parent="1" source="YqqokJOsMBxqn3fK3Nd--4">
          <mxGeometry relative="1" as="geometry">
            <mxPoint x="610" y="290" as="targetPoint" />
            <Array as="points">
              <mxPoint x="578" y="285" />
              <mxPoint x="578" y="290" />
            </Array>
          </mxGeometry>
        </mxCell>
        <mxCell id="YqqokJOsMBxqn3fK3Nd--4" value="erp_cust_az12" style="rounded=0;whiteSpace=wrap;html=1;" vertex="1" parent="1">
          <mxGeometry x="425" y="270" width="120" height="30" as="geometry" />
        </mxCell>
        <mxCell id="YqqokJOsMBxqn3fK3Nd--27" style="edgeStyle=orthogonalEdgeStyle;rounded=0;orthogonalLoop=1;jettySize=auto;html=1;exitX=1;exitY=0.5;exitDx=0;exitDy=0;entryX=0;entryY=0.75;entryDx=0;entryDy=0;fillColor=#1ba1e2;strokeColor=#006EAF;" edge="1" parent="1" source="YqqokJOsMBxqn3fK3Nd--5" target="YqqokJOsMBxqn3fK3Nd--12">
          <mxGeometry relative="1" as="geometry">
            <Array as="points">
              <mxPoint x="578" y="325" />
              <mxPoint x="578" y="290" />
              <mxPoint x="610" y="290" />
            </Array>
          </mxGeometry>
        </mxCell>
        <mxCell id="YqqokJOsMBxqn3fK3Nd--5" value="erm_loc_a101" style="rounded=0;whiteSpace=wrap;html=1;" vertex="1" parent="1">
          <mxGeometry x="425" y="310" width="120" height="30" as="geometry" />
        </mxCell>
        <mxCell id="YqqokJOsMBxqn3fK3Nd--23" style="edgeStyle=orthogonalEdgeStyle;rounded=0;orthogonalLoop=1;jettySize=auto;html=1;exitX=1;exitY=0.75;exitDx=0;exitDy=0;entryX=0;entryY=0.5;entryDx=0;entryDy=0;fillColor=#a20025;strokeColor=#6F0000;" edge="1" parent="1" source="YqqokJOsMBxqn3fK3Nd--6" target="YqqokJOsMBxqn3fK3Nd--14">
          <mxGeometry relative="1" as="geometry">
            <Array as="points">
              <mxPoint x="560" y="373" />
              <mxPoint x="560" y="365" />
            </Array>
          </mxGeometry>
        </mxCell>
        <mxCell id="YqqokJOsMBxqn3fK3Nd--6" value="erm_px_cat_g1v2&amp;nbsp;" style="rounded=0;whiteSpace=wrap;html=1;" vertex="1" parent="1">
          <mxGeometry x="425" y="350" width="120" height="30" as="geometry" />
        </mxCell>
        <mxCell id="YqqokJOsMBxqn3fK3Nd--26" style="edgeStyle=orthogonalEdgeStyle;rounded=0;orthogonalLoop=1;jettySize=auto;html=1;exitX=1;exitY=0.5;exitDx=0;exitDy=0;entryX=0;entryY=0.5;entryDx=0;entryDy=0;fillColor=#a20025;strokeColor=#6F0000;" edge="1" parent="1" source="YqqokJOsMBxqn3fK3Nd--7" target="YqqokJOsMBxqn3fK3Nd--14">
          <mxGeometry relative="1" as="geometry">
            <Array as="points">
              <mxPoint x="560" y="195" />
              <mxPoint x="560" y="365" />
            </Array>
          </mxGeometry>
        </mxCell>
        <mxCell id="YqqokJOsMBxqn3fK3Nd--7" value="crm_prd_info" style="rounded=0;whiteSpace=wrap;html=1;" vertex="1" parent="1">
          <mxGeometry x="425" y="180" width="120" height="30" as="geometry" />
        </mxCell>
        <mxCell id="YqqokJOsMBxqn3fK3Nd--30" style="edgeStyle=orthogonalEdgeStyle;rounded=0;orthogonalLoop=1;jettySize=auto;html=1;exitX=1;exitY=0.5;exitDx=0;exitDy=0;entryX=0;entryY=0.5;entryDx=0;entryDy=0;fillColor=#60a917;strokeColor=#2D7600;" edge="1" parent="1" source="YqqokJOsMBxqn3fK3Nd--8" target="YqqokJOsMBxqn3fK3Nd--15">
          <mxGeometry relative="1" as="geometry" />
        </mxCell>
        <mxCell id="YqqokJOsMBxqn3fK3Nd--8" value="crm_sales_details" style="rounded=0;whiteSpace=wrap;html=1;" vertex="1" parent="1">
          <mxGeometry x="425" y="220" width="120" height="30" as="geometry" />
        </mxCell>
        <mxCell id="YqqokJOsMBxqn3fK3Nd--9" value="" style="rounded=1;whiteSpace=wrap;html=1;fillColor=#e3c800;fontColor=#000000;strokeColor=#B09500;" vertex="1" parent="1">
          <mxGeometry x="610" y="120" width="120" height="280" as="geometry" />
        </mxCell>
        <mxCell id="YqqokJOsMBxqn3fK3Nd--10" value="GOLD LAYER" style="rounded=0;whiteSpace=wrap;html=1;fillColor=#e3c800;fontColor=#000000;strokeColor=#B09500;" vertex="1" parent="1">
          <mxGeometry x="610" y="80" width="120" height="30" as="geometry" />
        </mxCell>
        <mxCell id="YqqokJOsMBxqn3fK3Nd--12" value="dim_customers" style="rounded=0;whiteSpace=wrap;html=1;" vertex="1" parent="1">
          <mxGeometry x="610" y="270" width="120" height="30" as="geometry" />
        </mxCell>
        <mxCell id="YqqokJOsMBxqn3fK3Nd--14" value="dim_products" style="rounded=0;whiteSpace=wrap;html=1;" vertex="1" parent="1">
          <mxGeometry x="610" y="350" width="120" height="30" as="geometry" />
        </mxCell>
        <mxCell id="YqqokJOsMBxqn3fK3Nd--15" value="fact_sales" style="rounded=0;whiteSpace=wrap;html=1;" vertex="1" parent="1">
          <mxGeometry x="610" y="180" width="120" height="30" as="geometry" />
        </mxCell>
      </root>
    </mxGraphModel>
  </diagram>
</mxfile>
